<svg width="20" height="16" viewBox="0 0 20 16" fill="none" xmlns="http://www.w3.org/2000/svg">
<path d="M4.72 0.216C1.968 3.352 0.112 7.64 0.0480001 11.48C0.0480001 13.976 1.712 15.704 3.952 15.704C6.064 15.704 7.792 13.976 7.792 11.864C7.792 9.816 6.32 8.344 4.336 8.152C4.592 5.592 5.296 3.16 6.512 0.919998L4.72 0.216ZM16.112 0.216C13.36 3.352 11.504 7.64 11.44 11.48C11.44 13.976 13.104 15.704 15.344 15.704C17.456 15.704 19.184 13.976 19.184 11.864C19.184 9.816 17.712 8.344 15.728 8.152C15.984 5.592 16.688 3.16 17.904 0.919998L16.112 0.216Z" fill="#9F2122"/>
</svg>
